<mxfile modified="2020-09-23T08:37:22.160Z" host="app.diagrams.net" agent="5.0 (Windows NT 10.0; Win64; x64) AppleWebKit/537.36 (KHTML, like Gecko) Chrome/85.0.4183.102 Safari/537.36" etag="fXMPuf_shEIkYvgEfohM" version="13.7.4" type="github">
  <diagram id="d1ab7348-05c3-a1e3-ca4d-12c340fd6b49" name="Page-1">
    <mxGraphModel dx="2037" dy="1260" grid="1" gridSize="10" guides="1" tooltips="1" connect="1" arrows="1" fold="1" page="1" pageScale="1" pageWidth="1169" pageHeight="827" background="#ffffff" math="0" shadow="0">
      <root>
        <mxCell id="0" />
        <mxCell id="1" parent="0" />
        <mxCell id="tS3xyaebFN9T1gCZ_WtZ-163" value="USER &lt;br&gt;ONBOARDING" style="shape=image;html=1;verticalAlign=top;verticalLabelPosition=bottom;labelBackgroundColor=#ffffff;imageAspect=0;aspect=fixed;image=https://cdn2.iconfinder.com/data/icons/ios-7-icons/50/user_female-128.png" parent="1" vertex="1">
          <mxGeometry x="110" y="-195" width="62" height="62" as="geometry" />
        </mxCell>
        <mxCell id="tS3xyaebFN9T1gCZ_WtZ-164" value="LOAD BALANCER&lt;br&gt;REVERSE PROXY&lt;br&gt;AUTHENTICATION&lt;br&gt;AUTHORIZATION" style="outlineConnect=0;fontColor=#232F3E;gradientColor=none;fillColor=#5A30B5;strokeColor=none;dashed=0;verticalLabelPosition=bottom;verticalAlign=top;align=center;html=1;fontSize=12;fontStyle=0;aspect=fixed;pointerEvents=1;shape=mxgraph.aws4.network_load_balancer;" parent="1" vertex="1">
          <mxGeometry x="265" y="-194" width="60" height="60" as="geometry" />
        </mxCell>
        <mxCell id="tS3xyaebFN9T1gCZ_WtZ-165" value="USER SERVICE" style="aspect=fixed;perimeter=ellipsePerimeter;html=1;align=center;shadow=0;dashed=0;fontColor=#4277BB;labelBackgroundColor=#ffffff;fontSize=12;spacingTop=3;image;image=img/lib/ibm/applications/microservice.svg;" parent="1" vertex="1">
          <mxGeometry x="396" y="-194" width="69.87" height="51" as="geometry" />
        </mxCell>
        <mxCell id="tS3xyaebFN9T1gCZ_WtZ-169" value="KAFKA" style="outlineConnect=0;fontColor=#232F3E;gradientColor=#945DF2;gradientDirection=north;fillColor=#5A30B5;strokeColor=#ffffff;dashed=0;verticalLabelPosition=bottom;verticalAlign=top;align=center;html=1;fontSize=12;fontStyle=0;aspect=fixed;shape=mxgraph.aws4.resourceIcon;resIcon=mxgraph.aws4.managed_streaming_for_kafka;" parent="1" vertex="1">
          <mxGeometry x="980" y="-12" width="200" height="200" as="geometry" />
        </mxCell>
        <mxCell id="tS3xyaebFN9T1gCZ_WtZ-170" value="ADD&lt;br&gt;FRIEND" style="shape=image;html=1;verticalAlign=top;verticalLabelPosition=bottom;labelBackgroundColor=#ffffff;imageAspect=0;aspect=fixed;image=https://cdn0.iconfinder.com/data/icons/glyphpack/72/user-add-128.png" parent="1" vertex="1">
          <mxGeometry x="116" y="-74.75" width="50" height="50" as="geometry" />
        </mxCell>
        <mxCell id="tS3xyaebFN9T1gCZ_WtZ-171" value="LOAD BALANCER&lt;br&gt;REVERSE PROXY&lt;br&gt;AUTHENTICATION&lt;br&gt;AUTHORIZATION" style="outlineConnect=0;fontColor=#232F3E;gradientColor=none;fillColor=#5A30B5;strokeColor=none;dashed=0;verticalLabelPosition=bottom;verticalAlign=top;align=center;html=1;fontSize=12;fontStyle=0;aspect=fixed;pointerEvents=1;shape=mxgraph.aws4.network_load_balancer;" parent="1" vertex="1">
          <mxGeometry x="265" y="-70.5" width="63.5" height="63.5" as="geometry" />
        </mxCell>
        <mxCell id="tS3xyaebFN9T1gCZ_WtZ-172" value="GRAPH SERVICE" style="aspect=fixed;perimeter=ellipsePerimeter;html=1;align=center;shadow=0;dashed=0;fontColor=#4277BB;labelBackgroundColor=#ffffff;fontSize=12;spacingTop=3;image;image=img/lib/ibm/applications/microservice.svg;" parent="1" vertex="1">
          <mxGeometry x="396" y="-72" width="60.97" height="44.5" as="geometry" />
        </mxCell>
        <mxCell id="tS3xyaebFN9T1gCZ_WtZ-179" value="CACHE" style="outlineConnect=0;dashed=0;verticalLabelPosition=bottom;verticalAlign=top;align=center;html=1;shape=mxgraph.aws3.redis;fillColor=#2E73B8;gradientColor=none;" parent="1" vertex="1">
          <mxGeometry x="606" y="-122" width="54" height="52" as="geometry" />
        </mxCell>
        <mxCell id="tS3xyaebFN9T1gCZ_WtZ-181" value="TIMELINE" style="shape=image;html=1;verticalAlign=top;verticalLabelPosition=bottom;labelBackgroundColor=#ffffff;imageAspect=0;aspect=fixed;image=https://cdn4.iconfinder.com/data/icons/cloud-computing-2/500/cloud-users-128.png" parent="1" vertex="1">
          <mxGeometry x="109.78" y="154" width="75" height="75" as="geometry" />
        </mxCell>
        <mxCell id="tS3xyaebFN9T1gCZ_WtZ-182" value="LOAD BALANCER&lt;br&gt;REVERSE PROXY&lt;br&gt;AUTHENTICATION&lt;br&gt;AUTHORIZATION" style="outlineConnect=0;fontColor=#232F3E;gradientColor=none;fillColor=#5A30B5;strokeColor=none;dashed=0;verticalLabelPosition=bottom;verticalAlign=top;align=center;html=1;fontSize=12;fontStyle=0;aspect=fixed;pointerEvents=1;shape=mxgraph.aws4.network_load_balancer;" parent="1" vertex="1">
          <mxGeometry x="265" y="94" width="60" height="60" as="geometry" />
        </mxCell>
        <mxCell id="tS3xyaebFN9T1gCZ_WtZ-183" value="LOAD BALANCER&lt;br&gt;REVERSE PROXY&lt;br&gt;AUTHENTICATION&lt;br&gt;AUTHORIZATION" style="outlineConnect=0;fontColor=#232F3E;gradientColor=none;fillColor=#5A30B5;strokeColor=none;dashed=0;verticalLabelPosition=bottom;verticalAlign=top;align=center;html=1;fontSize=12;fontStyle=0;aspect=fixed;pointerEvents=1;shape=mxgraph.aws4.network_load_balancer;" parent="1" vertex="1">
          <mxGeometry x="260.5" y="297" width="62" height="62" as="geometry" />
        </mxCell>
        <mxCell id="tS3xyaebFN9T1gCZ_WtZ-184" value="USER PROFILE" style="shape=image;html=1;verticalAlign=top;verticalLabelPosition=bottom;labelBackgroundColor=#ffffff;imageAspect=0;aspect=fixed;image=https://cdn2.iconfinder.com/data/icons/picol-vector/32/user_profile-128.png" parent="1" vertex="1">
          <mxGeometry x="116" y="40.5" width="77" height="77" as="geometry" />
        </mxCell>
        <mxCell id="tS3xyaebFN9T1gCZ_WtZ-189" value="MYSQL CLUSTER" style="group" parent="1" vertex="1" connectable="0">
          <mxGeometry x="690" y="-228.5" width="90" height="110" as="geometry" />
        </mxCell>
        <mxCell id="tS3xyaebFN9T1gCZ_WtZ-190" value="" style="group" parent="tS3xyaebFN9T1gCZ_WtZ-189" vertex="1" connectable="0">
          <mxGeometry width="90" height="110" as="geometry" />
        </mxCell>
        <mxCell id="tS3xyaebFN9T1gCZ_WtZ-191" value="" style="points=[];aspect=fixed;html=1;align=center;shadow=0;dashed=0;image;image=img/lib/allied_telesis/buildings/Building_Cluster.svg;" parent="tS3xyaebFN9T1gCZ_WtZ-190" vertex="1">
          <mxGeometry y="38.59649122807017" width="74.31438127090301" height="68.06020066889633" as="geometry" />
        </mxCell>
        <mxCell id="tS3xyaebFN9T1gCZ_WtZ-192" value="" style="shape=image;html=1;verticalAlign=top;verticalLabelPosition=bottom;labelBackgroundColor=#ffffff;imageAspect=0;aspect=fixed;image=https://cdn4.iconfinder.com/data/icons/logos-brands-5/24/mysql-128.png" parent="tS3xyaebFN9T1gCZ_WtZ-190" vertex="1">
          <mxGeometry x="6.521739130434783" width="78.48383500557414" height="78.48383500557414" as="geometry" />
        </mxCell>
        <mxCell id="tS3xyaebFN9T1gCZ_WtZ-193" value="MYSQL CLUSTER" style="group" parent="1" vertex="1" connectable="0">
          <mxGeometry x="710" y="-110" width="90" height="110" as="geometry" />
        </mxCell>
        <mxCell id="tS3xyaebFN9T1gCZ_WtZ-194" value="" style="group" parent="tS3xyaebFN9T1gCZ_WtZ-193" vertex="1" connectable="0">
          <mxGeometry width="90" height="110" as="geometry" />
        </mxCell>
        <mxCell id="tS3xyaebFN9T1gCZ_WtZ-195" value="" style="points=[];aspect=fixed;html=1;align=center;shadow=0;dashed=0;image;image=img/lib/allied_telesis/buildings/Building_Cluster.svg;" parent="tS3xyaebFN9T1gCZ_WtZ-194" vertex="1">
          <mxGeometry y="38.59649122807017" width="74.31438127090301" height="68.06020066889633" as="geometry" />
        </mxCell>
        <mxCell id="tS3xyaebFN9T1gCZ_WtZ-196" value="" style="shape=image;html=1;verticalAlign=top;verticalLabelPosition=bottom;labelBackgroundColor=#ffffff;imageAspect=0;aspect=fixed;image=https://cdn4.iconfinder.com/data/icons/logos-brands-5/24/mysql-128.png" parent="tS3xyaebFN9T1gCZ_WtZ-194" vertex="1">
          <mxGeometry x="6.521739130434783" width="78.48383500557414" height="78.48383500557414" as="geometry" />
        </mxCell>
        <mxCell id="tS3xyaebFN9T1gCZ_WtZ-197" value="TIMELINE SERVICE" style="aspect=fixed;perimeter=ellipsePerimeter;html=1;align=center;shadow=0;dashed=0;fontColor=#4277BB;labelBackgroundColor=#ffffff;fontSize=12;spacingTop=3;image;image=img/lib/ibm/applications/microservice.svg;" parent="1" vertex="1">
          <mxGeometry x="396" y="101.75" width="60.97" height="44.5" as="geometry" />
        </mxCell>
        <mxCell id="tS3xyaebFN9T1gCZ_WtZ-198" value="CACHE" style="outlineConnect=0;dashed=0;verticalLabelPosition=bottom;verticalAlign=top;align=center;html=1;shape=mxgraph.aws3.redis;fillColor=#2E73B8;gradientColor=none;" parent="1" vertex="1">
          <mxGeometry x="675.49" y="101.75" width="40" height="46.5" as="geometry" />
        </mxCell>
        <mxCell id="tS3xyaebFN9T1gCZ_WtZ-199" value="POST PREPROCESSOR" style="aspect=fixed;perimeter=ellipsePerimeter;html=1;align=center;shadow=0;dashed=0;fontColor=#4277BB;labelBackgroundColor=#ffffff;fontSize=12;spacingTop=3;image;image=img/lib/ibm/applications/microservice.svg;" parent="1" vertex="1">
          <mxGeometry x="860" y="84" width="60.97" height="44.5" as="geometry" />
        </mxCell>
        <mxCell id="tS3xyaebFN9T1gCZ_WtZ-200" value="USER &amp;amp; GROUP SERVICE" style="aspect=fixed;perimeter=ellipsePerimeter;html=1;align=center;shadow=0;dashed=0;fontColor=#4277BB;labelBackgroundColor=#ffffff;fontSize=12;spacingTop=3;image;image=img/lib/ibm/applications/microservice.svg;" parent="1" vertex="1">
          <mxGeometry x="545.03" y="39.5" width="60.97" height="44.5" as="geometry" />
        </mxCell>
        <mxCell id="tS3xyaebFN9T1gCZ_WtZ-201" value="ADD&lt;br&gt;POST" style="shape=image;html=1;verticalAlign=top;verticalLabelPosition=bottom;labelBackgroundColor=#ffffff;imageAspect=0;aspect=fixed;image=https://cdn2.iconfinder.com/data/icons/freecns-cumulus/16/519959-022_Document_Add-128.png" parent="1" vertex="1">
          <mxGeometry x="110" y="288" width="80" height="80" as="geometry" />
        </mxCell>
        <mxCell id="tS3xyaebFN9T1gCZ_WtZ-202" value="POST INGESTION &lt;br&gt;SERVICE" style="aspect=fixed;perimeter=ellipsePerimeter;html=1;align=center;shadow=0;dashed=0;fontColor=#4277BB;labelBackgroundColor=#ffffff;fontSize=12;spacingTop=3;image;image=img/lib/ibm/applications/microservice.svg;" parent="1" vertex="1">
          <mxGeometry x="396" y="305.75" width="60.97" height="44.5" as="geometry" />
        </mxCell>
        <mxCell id="tS3xyaebFN9T1gCZ_WtZ-203" value="CDN" style="aspect=fixed;html=1;points=[];align=center;image;fontSize=12;image=img/lib/mscae/Content_Delivery_Network.svg;" parent="1" vertex="1">
          <mxGeometry x="-30" y="107.38" width="72.28" height="33.25" as="geometry" />
        </mxCell>
        <mxCell id="tS3xyaebFN9T1gCZ_WtZ-204" value="ASSET&lt;br&gt;SERVICE" style="aspect=fixed;perimeter=ellipsePerimeter;html=1;align=center;shadow=0;dashed=0;fontColor=#4277BB;labelBackgroundColor=#ffffff;fontSize=12;spacingTop=3;image;image=img/lib/ibm/applications/microservice.svg;" parent="1" vertex="1">
          <mxGeometry x="380" y="460" width="60.97" height="44.5" as="geometry" />
        </mxCell>
        <mxCell id="tS3xyaebFN9T1gCZ_WtZ-205" value="SHORT URL" style="aspect=fixed;perimeter=ellipsePerimeter;html=1;align=center;shadow=0;dashed=0;fontColor=#4277BB;labelBackgroundColor=#ffffff;fontSize=12;spacingTop=3;image;image=img/lib/ibm/applications/microservice.svg;" parent="1" vertex="1">
          <mxGeometry x="469.99999999999994" y="460" width="60.97" height="44.5" as="geometry" />
        </mxCell>
        <mxCell id="tS3xyaebFN9T1gCZ_WtZ-206" value="Amazon S3" style="outlineConnect=0;fontColor=#232F3E;gradientColor=none;strokeColor=#ffffff;fillColor=#232F3E;dashed=0;verticalLabelPosition=middle;verticalAlign=bottom;align=center;html=1;whiteSpace=wrap;fontSize=10;fontStyle=1;spacing=3;shape=mxgraph.aws4.productIcon;prIcon=mxgraph.aws4.s3;" parent="1" vertex="1">
          <mxGeometry x="249.99999999999994" y="540" width="49.1" height="65" as="geometry" />
        </mxCell>
        <mxCell id="tS3xyaebFN9T1gCZ_WtZ-207" value="POSTS MONGODB" style="dashed=0;outlineConnect=0;html=1;align=center;labelPosition=center;verticalLabelPosition=bottom;verticalAlign=top;shape=mxgraph.webicons.mongodb;gradientColor=#DFDEDE" parent="1" vertex="1">
          <mxGeometry x="600" y="325.3" width="90" height="88.2" as="geometry" />
        </mxCell>
        <mxCell id="tS3xyaebFN9T1gCZ_WtZ-208" value="AGGREGATED&lt;br&gt;TIMELINE&amp;nbsp;&lt;br&gt;MONGODB" style="shape=image;html=1;verticalAlign=top;verticalLabelPosition=bottom;labelBackgroundColor=#ffffff;imageAspect=0;aspect=fixed;image=https://cdn4.iconfinder.com/data/icons/logos-brands-5/24/mongodb-128.png" parent="1" vertex="1">
          <mxGeometry x="730" y="314" width="90" height="90" as="geometry" />
        </mxCell>
        <mxCell id="tS3xyaebFN9T1gCZ_WtZ-209" value="POSTS SERVICE" style="aspect=fixed;perimeter=ellipsePerimeter;html=1;align=center;shadow=0;dashed=0;fontColor=#4277BB;labelBackgroundColor=#ffffff;fontSize=12;spacingTop=3;image;image=img/lib/ibm/applications/microservice.svg;" parent="1" vertex="1">
          <mxGeometry x="614.52" y="200" width="60.97" height="44.5" as="geometry" />
        </mxCell>
        <mxCell id="tS3xyaebFN9T1gCZ_WtZ-210" value="ARCHIEVAL SERVICE" style="aspect=fixed;perimeter=ellipsePerimeter;html=1;align=center;shadow=0;dashed=0;fontColor=#4277BB;labelBackgroundColor=#ffffff;fontSize=12;spacingTop=3;image;image=img/lib/ibm/applications/microservice.svg;" parent="1" vertex="1">
          <mxGeometry x="744.52" y="210" width="60.97" height="44.5" as="geometry" />
        </mxCell>
        <mxCell id="tS3xyaebFN9T1gCZ_WtZ-211" value="" style="shape=image;html=1;verticalAlign=top;verticalLabelPosition=bottom;labelBackgroundColor=#ffffff;imageAspect=0;aspect=fixed;image=https://cdn4.iconfinder.com/data/icons/evil-icons-user-interface/64/like-128.png" parent="1" vertex="1">
          <mxGeometry x="96" y="650" width="90" height="90" as="geometry" />
        </mxCell>
        <mxCell id="tS3xyaebFN9T1gCZ_WtZ-213" value="LOAD BALANCER&lt;br&gt;REVERSE PROXY&lt;br&gt;AUTHENTICATION&lt;br&gt;AUTHORIZATION" style="outlineConnect=0;fontColor=#232F3E;gradientColor=none;fillColor=#5A30B5;strokeColor=none;dashed=0;verticalLabelPosition=bottom;verticalAlign=top;align=center;html=1;fontSize=12;fontStyle=0;aspect=fixed;pointerEvents=1;shape=mxgraph.aws4.network_load_balancer;" parent="1" vertex="1">
          <mxGeometry x="264" y="657" width="62" height="62" as="geometry" />
        </mxCell>
        <mxCell id="tS3xyaebFN9T1gCZ_WtZ-303" style="edgeStyle=orthogonalEdgeStyle;rounded=0;orthogonalLoop=1;jettySize=auto;html=1;exitX=0.75;exitY=0;exitDx=0;exitDy=0;" parent="1" source="tS3xyaebFN9T1gCZ_WtZ-214" target="tS3xyaebFN9T1gCZ_WtZ-211" edge="1">
          <mxGeometry relative="1" as="geometry" />
        </mxCell>
        <mxCell id="tS3xyaebFN9T1gCZ_WtZ-214" value="LIKE AND COMMENT" style="shape=image;html=1;verticalAlign=top;verticalLabelPosition=bottom;labelBackgroundColor=#ffffff;imageAspect=0;aspect=fixed;image=https://cdn4.iconfinder.com/data/icons/glyphs/24/icons_Message-128.png" parent="1" vertex="1">
          <mxGeometry x="70" y="702.25" width="66" height="66" as="geometry" />
        </mxCell>
        <mxCell id="tS3xyaebFN9T1gCZ_WtZ-215" value="LIKE SERVICE" style="aspect=fixed;perimeter=ellipsePerimeter;html=1;align=center;shadow=0;dashed=0;fontColor=#4277BB;labelBackgroundColor=#ffffff;fontSize=12;spacingTop=3;image;image=img/lib/ibm/applications/microservice.svg;" parent="1" vertex="1">
          <mxGeometry x="400.45" y="604.75" width="60.97" height="44.5" as="geometry" />
        </mxCell>
        <mxCell id="tS3xyaebFN9T1gCZ_WtZ-216" value="COMMENT SERVICE" style="aspect=fixed;perimeter=ellipsePerimeter;html=1;align=center;shadow=0;dashed=0;fontColor=#4277BB;labelBackgroundColor=#ffffff;fontSize=12;spacingTop=3;image;image=img/lib/ibm/applications/microservice.svg;" parent="1" vertex="1">
          <mxGeometry x="404.9" y="783" width="60.97" height="44.5" as="geometry" />
        </mxCell>
        <mxCell id="tS3xyaebFN9T1gCZ_WtZ-217" value="MONGODB" style="dashed=0;outlineConnect=0;html=1;align=center;labelPosition=center;verticalLabelPosition=bottom;verticalAlign=top;shape=mxgraph.webicons.mongodb;gradientColor=#DFDEDE" parent="1" vertex="1">
          <mxGeometry x="630" y="580" width="60" height="60" as="geometry" />
        </mxCell>
        <mxCell id="tS3xyaebFN9T1gCZ_WtZ-218" value="CACHE" style="outlineConnect=0;dashed=0;verticalLabelPosition=bottom;verticalAlign=top;align=center;html=1;shape=mxgraph.aws3.redis;fillColor=#2E73B8;gradientColor=none;" parent="1" vertex="1">
          <mxGeometry x="520" y="690" width="40" height="46.5" as="geometry" />
        </mxCell>
        <mxCell id="tS3xyaebFN9T1gCZ_WtZ-219" value="MONGODB" style="dashed=0;outlineConnect=0;html=1;align=center;labelPosition=center;verticalLabelPosition=bottom;verticalAlign=top;shape=mxgraph.webicons.mongodb;gradientColor=#DFDEDE" parent="1" vertex="1">
          <mxGeometry x="630" y="775.25" width="60" height="60" as="geometry" />
        </mxCell>
        <mxCell id="tS3xyaebFN9T1gCZ_WtZ-220" value="SPARK STREAMING" style="shape=image;html=1;verticalAlign=top;verticalLabelPosition=bottom;labelBackgroundColor=#ffffff;imageAspect=0;aspect=fixed;image=https://cdn2.iconfinder.com/data/icons/adobe-square-2/243/adobe-square-spark-128.png" parent="1" vertex="1">
          <mxGeometry x="1350" y="4" width="80" height="80" as="geometry" />
        </mxCell>
        <mxCell id="tS3xyaebFN9T1gCZ_WtZ-221" value="HADOOP CLUSTER" style="shape=image;html=1;verticalAlign=top;verticalLabelPosition=bottom;labelBackgroundColor=#ffffff;imageAspect=0;aspect=fixed;image=https://cdn2.iconfinder.com/data/icons/amazon-aws-stencils/100/Compute__Networking_copy_Amazon_EMR_HDFS_Cluster-128.png" parent="1" vertex="1">
          <mxGeometry x="1530" y="-2.25" width="128" height="128" as="geometry" />
        </mxCell>
        <mxCell id="tS3xyaebFN9T1gCZ_WtZ-223" value="SPARK CLUSTER" style="points=[];aspect=fixed;html=1;align=center;shadow=0;dashed=0;image;image=img/lib/allied_telesis/buildings/Building_Cluster.svg;" parent="1" vertex="1">
          <mxGeometry x="1754" y="6.5" width="121.2" height="111" as="geometry" />
        </mxCell>
        <mxCell id="tS3xyaebFN9T1gCZ_WtZ-222" value="" style="shape=image;html=1;verticalAlign=top;verticalLabelPosition=bottom;labelBackgroundColor=#ffffff;imageAspect=0;aspect=fixed;image=https://cdn2.iconfinder.com/data/icons/adobe-square-2/243/adobe-square-spark-128.png" parent="1" vertex="1">
          <mxGeometry x="1740" y="39.5" width="78" height="78" as="geometry" />
        </mxCell>
        <mxCell id="tS3xyaebFN9T1gCZ_WtZ-224" value="TRENDS" style="shape=image;html=1;verticalAlign=top;verticalLabelPosition=bottom;labelBackgroundColor=#ffffff;imageAspect=0;aspect=fixed;image=https://cdn0.iconfinder.com/data/icons/maternity-and-pregnancy-2/512/171_Analytics_business_chart_diagram_graph_trends-128.png" parent="1" vertex="1">
          <mxGeometry x="1340" y="-175.5" width="100" height="100" as="geometry" />
        </mxCell>
        <mxCell id="tS3xyaebFN9T1gCZ_WtZ-225" value="CACHE" style="outlineConnect=0;dashed=0;verticalLabelPosition=bottom;verticalAlign=top;align=center;html=1;shape=mxgraph.aws3.redis;fillColor=#2E73B8;gradientColor=none;" parent="1" vertex="1">
          <mxGeometry x="1550" y="-148.75" width="40" height="46.5" as="geometry" />
        </mxCell>
        <mxCell id="tS3xyaebFN9T1gCZ_WtZ-227" value="Amazon Elasticsearch Service" style="outlineConnect=0;fontColor=#232F3E;gradientColor=none;strokeColor=#ffffff;fillColor=#232F3E;dashed=0;verticalLabelPosition=middle;verticalAlign=bottom;align=center;html=1;whiteSpace=wrap;fontSize=10;fontStyle=1;spacing=3;shape=mxgraph.aws4.productIcon;prIcon=mxgraph.aws4.elasticsearch_service;" parent="1" vertex="1">
          <mxGeometry x="1370" y="350.25" width="80" height="120" as="geometry" />
        </mxCell>
        <mxCell id="tS3xyaebFN9T1gCZ_WtZ-228" value="SEARCH CONSUMER" style="aspect=fixed;perimeter=ellipsePerimeter;html=1;align=center;shadow=0;dashed=0;fontColor=#4277BB;labelBackgroundColor=#ffffff;fontSize=12;spacingTop=3;image;image=img/lib/ibm/applications/microservice.svg;" parent="1" vertex="1">
          <mxGeometry x="1210" y="360" width="60.97" height="44.5" as="geometry" />
        </mxCell>
        <mxCell id="tS3xyaebFN9T1gCZ_WtZ-229" value="SEARCH&lt;br&gt;SERVICE" style="aspect=fixed;perimeter=ellipsePerimeter;html=1;align=center;shadow=0;dashed=0;fontColor=#4277BB;labelBackgroundColor=#ffffff;fontSize=12;spacingTop=3;image;image=img/lib/ibm/applications/microservice.svg;" parent="1" vertex="1">
          <mxGeometry x="1650" y="368" width="60.97" height="44.5" as="geometry" />
        </mxCell>
        <mxCell id="tS3xyaebFN9T1gCZ_WtZ-230" value="LOAD BALANCER&lt;br&gt;REVERSE PROXY&lt;br&gt;AUTHENTICATION&lt;br&gt;AUTHORIZATION" style="outlineConnect=0;fontColor=#232F3E;gradientColor=none;fillColor=#5A30B5;strokeColor=none;dashed=0;verticalLabelPosition=bottom;verticalAlign=top;align=center;html=1;fontSize=12;fontStyle=0;aspect=fixed;pointerEvents=1;shape=mxgraph.aws4.network_load_balancer;" parent="1" vertex="1">
          <mxGeometry x="1790" y="359.25" width="62" height="62" as="geometry" />
        </mxCell>
        <mxCell id="tS3xyaebFN9T1gCZ_WtZ-231" value="SEARCH UI" style="shape=image;html=1;verticalAlign=top;verticalLabelPosition=bottom;labelBackgroundColor=#ffffff;imageAspect=0;aspect=fixed;image=https://cdn1.iconfinder.com/data/icons/free-98-icons/32/search-128.png" parent="1" vertex="1">
          <mxGeometry x="1950" y="360" width="80" height="80" as="geometry" />
        </mxCell>
        <mxCell id="tS3xyaebFN9T1gCZ_WtZ-232" value="CACHE" style="outlineConnect=0;dashed=0;verticalLabelPosition=bottom;verticalAlign=top;align=center;html=1;shape=mxgraph.aws3.redis;fillColor=#2E73B8;gradientColor=none;" parent="1" vertex="1">
          <mxGeometry x="1660.49" y="504.5" width="40" height="46.5" as="geometry" />
        </mxCell>
        <mxCell id="tS3xyaebFN9T1gCZ_WtZ-233" value="ACTIVITY TRACKER" style="aspect=fixed;perimeter=ellipsePerimeter;html=1;align=center;shadow=0;dashed=0;fontColor=#4277BB;labelBackgroundColor=#ffffff;fontSize=12;spacingTop=3;image;image=img/lib/ibm/social/live_collaboration.svg;" parent="1" vertex="1">
          <mxGeometry x="1210" y="657" width="89.5" height="89.5" as="geometry" />
        </mxCell>
        <mxCell id="tS3xyaebFN9T1gCZ_WtZ-234" value="ACTIVITY UI" style="shape=image;html=1;verticalAlign=top;verticalLabelPosition=bottom;labelBackgroundColor=#ffffff;imageAspect=0;aspect=fixed;image=https://cdn1.iconfinder.com/data/icons/journalist-4/64/live-broadcast-online-smartphone-mic-128.png;direction=south;rotation=-90;" parent="1" vertex="1">
          <mxGeometry x="1440" y="661.75" width="80" height="80" as="geometry" />
        </mxCell>
        <mxCell id="tS3xyaebFN9T1gCZ_WtZ-235" value="MONGODB" style="dashed=0;outlineConnect=0;html=1;align=center;labelPosition=center;verticalLabelPosition=bottom;verticalAlign=top;shape=mxgraph.webicons.mongodb;gradientColor=#DFDEDE" parent="1" vertex="1">
          <mxGeometry x="1210" y="835.25" width="90" height="88.2" as="geometry" />
        </mxCell>
        <mxCell id="tS3xyaebFN9T1gCZ_WtZ-238" value="" style="edgeStyle=orthogonalEdgeStyle;html=1;endArrow=block;elbow=vertical;startArrow=block;startFill=1;endFill=1;strokeColor=#545B64;rounded=0;" parent="1" edge="1">
          <mxGeometry width="100" relative="1" as="geometry">
            <mxPoint x="190" y="-160" as="sourcePoint" />
            <mxPoint x="250" y="-160" as="targetPoint" />
          </mxGeometry>
        </mxCell>
        <mxCell id="tS3xyaebFN9T1gCZ_WtZ-239" value="" style="edgeStyle=orthogonalEdgeStyle;html=1;endArrow=block;elbow=vertical;startArrow=block;startFill=1;endFill=1;strokeColor=#545B64;rounded=0;" parent="1" edge="1">
          <mxGeometry width="100" relative="1" as="geometry">
            <mxPoint x="331" y="-161.00000000000023" as="sourcePoint" />
            <mxPoint x="391" y="-161.00000000000023" as="targetPoint" />
          </mxGeometry>
        </mxCell>
        <mxCell id="tS3xyaebFN9T1gCZ_WtZ-240" value="" style="edgeStyle=orthogonalEdgeStyle;html=1;endArrow=block;elbow=vertical;startArrow=block;startFill=1;endFill=1;strokeColor=#545B64;rounded=0;" parent="1" edge="1">
          <mxGeometry width="100" relative="1" as="geometry">
            <mxPoint x="475.45" y="-160.00000000000023" as="sourcePoint" />
            <mxPoint x="680" y="-160" as="targetPoint" />
          </mxGeometry>
        </mxCell>
        <mxCell id="tS3xyaebFN9T1gCZ_WtZ-243" value="" style="edgeStyle=orthogonalEdgeStyle;html=1;endArrow=block;elbow=vertical;startArrow=block;startFill=1;endFill=1;strokeColor=#545B64;rounded=0;" parent="1" edge="1">
          <mxGeometry width="100" relative="1" as="geometry">
            <mxPoint x="420" y="-210" as="sourcePoint" />
            <mxPoint x="1050" y="-30" as="targetPoint" />
            <Array as="points">
              <mxPoint x="420" y="-240" />
              <mxPoint x="1050" y="-240" />
            </Array>
          </mxGeometry>
        </mxCell>
        <mxCell id="tS3xyaebFN9T1gCZ_WtZ-245" value="" style="edgeStyle=orthogonalEdgeStyle;html=1;endArrow=block;elbow=vertical;startArrow=block;startFill=1;endFill=1;strokeColor=#545B64;rounded=0;" parent="1" edge="1">
          <mxGeometry width="100" relative="1" as="geometry">
            <mxPoint x="190" y="-44.340000000000224" as="sourcePoint" />
            <mxPoint x="250" y="-44.340000000000224" as="targetPoint" />
            <Array as="points">
              <mxPoint x="230" y="-44.339999999999996" />
              <mxPoint x="230" y="-44.339999999999996" />
            </Array>
          </mxGeometry>
        </mxCell>
        <mxCell id="tS3xyaebFN9T1gCZ_WtZ-246" value="" style="edgeStyle=orthogonalEdgeStyle;html=1;endArrow=block;elbow=vertical;startArrow=block;startFill=1;endFill=1;strokeColor=#545B64;rounded=0;" parent="1" edge="1">
          <mxGeometry width="100" relative="1" as="geometry">
            <mxPoint x="336" y="-44.34000000000023" as="sourcePoint" />
            <mxPoint x="396" y="-44.34000000000023" as="targetPoint" />
          </mxGeometry>
        </mxCell>
        <mxCell id="tS3xyaebFN9T1gCZ_WtZ-247" value="" style="edgeStyle=orthogonalEdgeStyle;html=1;endArrow=block;elbow=vertical;startArrow=block;startFill=1;endFill=1;strokeColor=#545B64;rounded=0;" parent="1" edge="1">
          <mxGeometry width="100" relative="1" as="geometry">
            <mxPoint x="465.87" y="-44.340000000000146" as="sourcePoint" />
            <mxPoint x="700" y="-44" as="targetPoint" />
            <Array as="points">
              <mxPoint x="570" y="-44" />
              <mxPoint x="570" y="-44" />
            </Array>
          </mxGeometry>
        </mxCell>
        <mxCell id="tS3xyaebFN9T1gCZ_WtZ-250" value="" style="edgeStyle=orthogonalEdgeStyle;html=1;endArrow=block;elbow=vertical;startArrow=block;startFill=1;endFill=1;strokeColor=#545B64;rounded=0;" parent="1" edge="1">
          <mxGeometry width="100" relative="1" as="geometry">
            <mxPoint x="412" y="-70" as="sourcePoint" />
            <mxPoint x="600" y="-89" as="targetPoint" />
            <Array as="points">
              <mxPoint x="411.82000000000005" y="-89" />
              <mxPoint x="525.82" y="-89" />
            </Array>
          </mxGeometry>
        </mxCell>
        <mxCell id="tS3xyaebFN9T1gCZ_WtZ-251" value="" style="edgeStyle=orthogonalEdgeStyle;html=1;endArrow=block;elbow=vertical;startArrow=block;startFill=1;endFill=1;strokeColor=#545B64;rounded=0;" parent="1" edge="1">
          <mxGeometry width="100" relative="1" as="geometry">
            <mxPoint x="421" y="-3" as="sourcePoint" />
            <mxPoint x="960" y="12.5" as="targetPoint" />
            <Array as="points">
              <mxPoint x="421" y="13" />
            </Array>
          </mxGeometry>
        </mxCell>
        <mxCell id="tS3xyaebFN9T1gCZ_WtZ-254" value="" style="edgeStyle=orthogonalEdgeStyle;html=1;endArrow=block;elbow=vertical;startArrow=block;startFill=1;endFill=1;strokeColor=#545B64;rounded=0;" parent="1" edge="1">
          <mxGeometry width="100" relative="1" as="geometry">
            <mxPoint x="412" y="-120" as="sourcePoint" />
            <mxPoint x="600" y="-100" as="targetPoint" />
            <Array as="points">
              <mxPoint x="412" y="-120" />
              <mxPoint x="412" y="-100" />
            </Array>
          </mxGeometry>
        </mxCell>
        <mxCell id="tS3xyaebFN9T1gCZ_WtZ-261" value="" style="edgeStyle=orthogonalEdgeStyle;html=1;endArrow=block;elbow=vertical;startArrow=block;startFill=1;endFill=1;strokeColor=#545B64;rounded=0;" parent="1" edge="1">
          <mxGeometry width="100" relative="1" as="geometry">
            <mxPoint x="179" y="62" as="sourcePoint" />
            <mxPoint x="260" y="112" as="targetPoint" />
            <Array as="points">
              <mxPoint x="229" y="62" />
              <mxPoint x="229" y="112" />
            </Array>
          </mxGeometry>
        </mxCell>
        <mxCell id="tS3xyaebFN9T1gCZ_WtZ-262" value="" style="edgeStyle=orthogonalEdgeStyle;html=1;endArrow=block;elbow=vertical;startArrow=block;startFill=1;endFill=1;strokeColor=#545B64;rounded=0;" parent="1" edge="1">
          <mxGeometry width="100" relative="1" as="geometry">
            <mxPoint x="172" y="169.99999999999986" as="sourcePoint" />
            <mxPoint x="260" y="130" as="targetPoint" />
            <Array as="points">
              <mxPoint x="210" y="170" />
              <mxPoint x="210" y="130" />
            </Array>
          </mxGeometry>
        </mxCell>
        <mxCell id="tS3xyaebFN9T1gCZ_WtZ-263" value="" style="edgeStyle=orthogonalEdgeStyle;html=1;endArrow=block;elbow=vertical;startArrow=block;startFill=1;endFill=1;strokeColor=#545B64;rounded=0;" parent="1" edge="1">
          <mxGeometry width="100" relative="1" as="geometry">
            <mxPoint x="328.5" y="123.40999999999985" as="sourcePoint" />
            <mxPoint x="388.5" y="123.40999999999985" as="targetPoint" />
          </mxGeometry>
        </mxCell>
        <mxCell id="tS3xyaebFN9T1gCZ_WtZ-264" value="" style="edgeStyle=orthogonalEdgeStyle;html=1;endArrow=block;elbow=vertical;startArrow=block;startFill=1;endFill=1;strokeColor=#545B64;rounded=0;" parent="1" edge="1">
          <mxGeometry width="100" relative="1" as="geometry">
            <mxPoint x="410" y="170" as="sourcePoint" />
            <mxPoint x="600" y="240" as="targetPoint" />
            <Array as="points">
              <mxPoint x="410" y="240" />
            </Array>
          </mxGeometry>
        </mxCell>
        <mxCell id="tS3xyaebFN9T1gCZ_WtZ-265" value="" style="edgeStyle=orthogonalEdgeStyle;html=1;endArrow=block;elbow=vertical;startArrow=block;startFill=1;endFill=1;strokeColor=#545B64;rounded=0;" parent="1" edge="1">
          <mxGeometry width="100" relative="1" as="geometry">
            <mxPoint x="440" y="170" as="sourcePoint" />
            <mxPoint x="765" y="210" as="targetPoint" />
            <Array as="points">
              <mxPoint x="440" y="190" />
              <mxPoint x="765" y="190" />
            </Array>
          </mxGeometry>
        </mxCell>
        <mxCell id="tS3xyaebFN9T1gCZ_WtZ-267" value="" style="edgeStyle=orthogonalEdgeStyle;html=1;endArrow=block;elbow=vertical;startArrow=block;startFill=1;endFill=1;strokeColor=#545B64;rounded=0;" parent="1" edge="1">
          <mxGeometry width="100" relative="1" as="geometry">
            <mxPoint x="461.42" y="123.41999999999986" as="sourcePoint" />
            <mxPoint x="670" y="123" as="targetPoint" />
            <Array as="points">
              <mxPoint x="620" y="123" />
              <mxPoint x="620" y="123" />
            </Array>
          </mxGeometry>
        </mxCell>
        <mxCell id="tS3xyaebFN9T1gCZ_WtZ-268" value="" style="edgeStyle=orthogonalEdgeStyle;html=1;endArrow=block;elbow=vertical;startArrow=block;startFill=1;endFill=1;strokeColor=#545B64;rounded=0;" parent="1" edge="1">
          <mxGeometry width="100" relative="1" as="geometry">
            <mxPoint x="920" y="105.65999999999985" as="sourcePoint" />
            <mxPoint x="980" y="105.65999999999985" as="targetPoint" />
          </mxGeometry>
        </mxCell>
        <mxCell id="tS3xyaebFN9T1gCZ_WtZ-270" value="" style="edgeStyle=orthogonalEdgeStyle;html=1;endArrow=block;elbow=vertical;startArrow=block;startFill=1;endFill=1;strokeColor=#545B64;rounded=0;" parent="1" edge="1">
          <mxGeometry width="100" relative="1" as="geometry">
            <mxPoint x="410" y="90" as="sourcePoint" />
            <mxPoint x="540" y="60" as="targetPoint" />
            <Array as="points">
              <mxPoint x="410" y="60" />
              <mxPoint x="540" y="60" />
            </Array>
          </mxGeometry>
        </mxCell>
        <mxCell id="tS3xyaebFN9T1gCZ_WtZ-271" value="" style="edgeStyle=orthogonalEdgeStyle;html=1;endArrow=block;elbow=vertical;startArrow=block;startFill=1;endFill=1;strokeColor=#545B64;rounded=0;exitX=1;exitY=0.5;exitDx=0;exitDy=0;" parent="1" source="tS3xyaebFN9T1gCZ_WtZ-200" edge="1">
          <mxGeometry width="100" relative="1" as="geometry">
            <mxPoint x="620" y="61.159999999999854" as="sourcePoint" />
            <mxPoint x="880" y="80" as="targetPoint" />
            <Array as="points">
              <mxPoint x="880" y="62" />
            </Array>
          </mxGeometry>
        </mxCell>
        <mxCell id="tS3xyaebFN9T1gCZ_WtZ-272" value="" style="edgeStyle=orthogonalEdgeStyle;html=1;endArrow=block;elbow=vertical;startArrow=block;startFill=1;endFill=1;strokeColor=#545B64;rounded=0;" parent="1" edge="1">
          <mxGeometry width="100" relative="1" as="geometry">
            <mxPoint x="717.94" y="122" as="sourcePoint" />
            <mxPoint x="780" y="210" as="targetPoint" />
            <Array as="points">
              <mxPoint x="780" y="122" />
              <mxPoint x="780" y="200" />
            </Array>
          </mxGeometry>
        </mxCell>
        <mxCell id="tS3xyaebFN9T1gCZ_WtZ-273" value="" style="edgeStyle=orthogonalEdgeStyle;html=1;endArrow=block;elbow=vertical;startArrow=block;startFill=1;endFill=1;strokeColor=#545B64;rounded=0;entryX=0;entryY=0.539;entryDx=0;entryDy=0;entryPerimeter=0;" parent="1" target="tS3xyaebFN9T1gCZ_WtZ-199" edge="1">
          <mxGeometry width="100" relative="1" as="geometry">
            <mxPoint x="718" y="107.74999999999986" as="sourcePoint" />
            <mxPoint x="848" y="108" as="targetPoint" />
            <Array as="points" />
          </mxGeometry>
        </mxCell>
        <mxCell id="tS3xyaebFN9T1gCZ_WtZ-274" value="" style="edgeStyle=orthogonalEdgeStyle;html=1;endArrow=block;elbow=vertical;startArrow=block;startFill=1;endFill=1;strokeColor=#545B64;rounded=0;" parent="1" edge="1">
          <mxGeometry width="100" relative="1" as="geometry">
            <mxPoint x="193" y="327.40999999999985" as="sourcePoint" />
            <mxPoint x="253" y="327.40999999999985" as="targetPoint" />
            <Array as="points">
              <mxPoint x="233" y="327.41" />
              <mxPoint x="233" y="327.41" />
            </Array>
          </mxGeometry>
        </mxCell>
        <mxCell id="tS3xyaebFN9T1gCZ_WtZ-275" value="" style="edgeStyle=orthogonalEdgeStyle;html=1;endArrow=block;elbow=vertical;startArrow=block;startFill=1;endFill=1;strokeColor=#545B64;rounded=0;" parent="1" edge="1">
          <mxGeometry width="100" relative="1" as="geometry">
            <mxPoint x="328.49999999999955" y="327.46999999999986" as="sourcePoint" />
            <mxPoint x="388.49999999999955" y="327.46999999999986" as="targetPoint" />
            <Array as="points">
              <mxPoint x="368.5" y="327.47" />
              <mxPoint x="368.5" y="327.47" />
            </Array>
          </mxGeometry>
        </mxCell>
        <mxCell id="tS3xyaebFN9T1gCZ_WtZ-276" value="" style="edgeStyle=orthogonalEdgeStyle;html=1;endArrow=block;elbow=vertical;startArrow=block;startFill=1;endFill=1;strokeColor=#545B64;rounded=0;" parent="1" edge="1">
          <mxGeometry width="100" relative="1" as="geometry">
            <mxPoint x="465.86999999999955" y="327.82000000000005" as="sourcePoint" />
            <mxPoint x="590" y="327.41" as="targetPoint" />
            <Array as="points">
              <mxPoint x="505.87" y="327.82000000000005" />
              <mxPoint x="505.87" y="327.82000000000005" />
            </Array>
          </mxGeometry>
        </mxCell>
        <mxCell id="tS3xyaebFN9T1gCZ_WtZ-277" value="" style="edgeStyle=orthogonalEdgeStyle;html=1;endArrow=block;elbow=vertical;startArrow=block;startFill=1;endFill=1;strokeColor=#545B64;rounded=0;" parent="1" edge="1">
          <mxGeometry width="100" relative="1" as="geometry">
            <mxPoint x="700" y="357.82" as="sourcePoint" />
            <mxPoint x="739.9999999999995" y="358.23" as="targetPoint" />
            <Array as="points">
              <mxPoint x="720" y="358.23" />
              <mxPoint x="720" y="358.23" />
            </Array>
          </mxGeometry>
        </mxCell>
        <mxCell id="tS3xyaebFN9T1gCZ_WtZ-278" value="" style="edgeStyle=orthogonalEdgeStyle;html=1;endArrow=block;elbow=vertical;startArrow=block;startFill=1;endFill=1;strokeColor=#545B64;rounded=0;" parent="1" edge="1">
          <mxGeometry width="100" relative="1" as="geometry">
            <mxPoint x="641.2299999999999" y="319" as="sourcePoint" />
            <mxPoint x="640" y="274" as="targetPoint" />
            <Array as="points">
              <mxPoint x="641.2299999999999" y="319" />
            </Array>
          </mxGeometry>
        </mxCell>
        <mxCell id="tS3xyaebFN9T1gCZ_WtZ-282" value="" style="edgeStyle=orthogonalEdgeStyle;html=1;endArrow=block;elbow=vertical;startArrow=block;startFill=1;endFill=1;strokeColor=#545B64;rounded=0;" parent="1" edge="1">
          <mxGeometry width="100" relative="1" as="geometry">
            <mxPoint x="775" y="310" as="sourcePoint" />
            <mxPoint x="775" y="280" as="targetPoint" />
            <Array as="points">
              <mxPoint x="775" y="297" />
            </Array>
          </mxGeometry>
        </mxCell>
        <mxCell id="tS3xyaebFN9T1gCZ_WtZ-284" value="" style="edgeStyle=orthogonalEdgeStyle;html=1;endArrow=block;elbow=vertical;startArrow=block;startFill=1;endFill=1;strokeColor=#545B64;rounded=0;" parent="1" edge="1">
          <mxGeometry width="100" relative="1" as="geometry">
            <mxPoint x="409.94" y="450" as="sourcePoint" />
            <mxPoint x="409.94" y="390" as="targetPoint" />
            <Array as="points">
              <mxPoint x="410" y="413" />
              <mxPoint x="410" y="413" />
            </Array>
          </mxGeometry>
        </mxCell>
        <mxCell id="tS3xyaebFN9T1gCZ_WtZ-285" value="" style="edgeStyle=orthogonalEdgeStyle;html=1;endArrow=block;elbow=vertical;startArrow=block;startFill=1;endFill=1;strokeColor=#545B64;rounded=0;" parent="1" edge="1">
          <mxGeometry width="100" relative="1" as="geometry">
            <mxPoint x="490" y="450" as="sourcePoint" />
            <mxPoint x="440.97" y="390" as="targetPoint" />
            <Array as="points">
              <mxPoint x="490" y="450" />
              <mxPoint x="490" y="420" />
              <mxPoint x="441" y="420" />
            </Array>
          </mxGeometry>
        </mxCell>
        <mxCell id="tS3xyaebFN9T1gCZ_WtZ-287" value="" style="edgeStyle=orthogonalEdgeStyle;html=1;endArrow=block;elbow=vertical;startArrow=block;startFill=1;endFill=1;strokeColor=#545B64;rounded=0;" parent="1" edge="1">
          <mxGeometry width="100" relative="1" as="geometry">
            <mxPoint y="170" as="sourcePoint" />
            <mxPoint x="370" y="480" as="targetPoint" />
            <Array as="points">
              <mxPoint y="480" />
              <mxPoint x="260" y="480" />
            </Array>
          </mxGeometry>
        </mxCell>
        <mxCell id="tS3xyaebFN9T1gCZ_WtZ-288" value="" style="edgeStyle=orthogonalEdgeStyle;html=1;endArrow=block;elbow=vertical;startArrow=block;startFill=1;endFill=1;strokeColor=#545B64;rounded=0;" parent="1" edge="1">
          <mxGeometry width="100" relative="1" as="geometry">
            <mxPoint y="90" as="sourcePoint" />
            <mxPoint x="100" y="50" as="targetPoint" />
            <Array as="points">
              <mxPoint y="50" />
            </Array>
          </mxGeometry>
        </mxCell>
        <mxCell id="tS3xyaebFN9T1gCZ_WtZ-289" value="" style="edgeStyle=orthogonalEdgeStyle;html=1;endArrow=block;elbow=vertical;startArrow=block;startFill=1;endFill=1;strokeColor=#545B64;rounded=0;" parent="1" edge="1">
          <mxGeometry width="100" relative="1" as="geometry">
            <mxPoint x="20" y="170" as="sourcePoint" />
            <mxPoint x="100" y="210" as="targetPoint" />
            <Array as="points">
              <mxPoint x="20" y="210" />
            </Array>
          </mxGeometry>
        </mxCell>
        <mxCell id="tS3xyaebFN9T1gCZ_WtZ-290" value="" style="edgeStyle=orthogonalEdgeStyle;html=1;endArrow=block;elbow=vertical;startArrow=block;startFill=1;endFill=1;strokeColor=#545B64;rounded=0;" parent="1" edge="1">
          <mxGeometry width="100" relative="1" as="geometry">
            <mxPoint x="189.99999999999955" y="687.4699999999998" as="sourcePoint" />
            <mxPoint x="249.99999999999955" y="687.4699999999998" as="targetPoint" />
            <Array as="points">
              <mxPoint x="230" y="687.47" />
              <mxPoint x="230" y="687.47" />
            </Array>
          </mxGeometry>
        </mxCell>
        <mxCell id="tS3xyaebFN9T1gCZ_WtZ-291" value="" style="edgeStyle=orthogonalEdgeStyle;html=1;endArrow=block;elbow=vertical;startArrow=block;startFill=1;endFill=1;strokeColor=#545B64;rounded=0;" parent="1" edge="1">
          <mxGeometry width="100" relative="1" as="geometry">
            <mxPoint x="290" y="650" as="sourcePoint" />
            <mxPoint x="385.99999999999955" y="626.4099999999999" as="targetPoint" />
            <Array as="points">
              <mxPoint x="290" y="650" />
              <mxPoint x="290" y="626" />
            </Array>
          </mxGeometry>
        </mxCell>
        <mxCell id="tS3xyaebFN9T1gCZ_WtZ-292" value="" style="edgeStyle=orthogonalEdgeStyle;html=1;endArrow=block;elbow=vertical;startArrow=block;startFill=1;endFill=1;strokeColor=#545B64;rounded=0;" parent="1" edge="1">
          <mxGeometry width="100" relative="1" as="geometry">
            <mxPoint x="280" y="790" as="sourcePoint" />
            <mxPoint x="379.99999999999955" y="804.6599999999999" as="targetPoint" />
            <Array as="points">
              <mxPoint x="280" y="805" />
            </Array>
          </mxGeometry>
        </mxCell>
        <mxCell id="tS3xyaebFN9T1gCZ_WtZ-293" value="" style="edgeStyle=orthogonalEdgeStyle;html=1;endArrow=block;elbow=vertical;startArrow=block;startFill=1;endFill=1;strokeColor=#545B64;rounded=0;" parent="1" edge="1">
          <mxGeometry width="100" relative="1" as="geometry">
            <mxPoint x="465.8699999999999" y="350.66000000000014" as="sourcePoint" />
            <mxPoint x="990" y="200" as="targetPoint" />
            <Array as="points">
              <mxPoint x="528" y="351" />
              <mxPoint x="528" y="460" />
              <mxPoint x="990" y="460" />
              <mxPoint x="990" y="320" />
            </Array>
          </mxGeometry>
        </mxCell>
        <mxCell id="tS3xyaebFN9T1gCZ_WtZ-295" value="" style="edgeStyle=orthogonalEdgeStyle;html=1;endArrow=block;elbow=vertical;startArrow=block;startFill=1;endFill=1;strokeColor=#545B64;rounded=0;" parent="1" edge="1">
          <mxGeometry width="100" relative="1" as="geometry">
            <mxPoint x="301" y="570" as="sourcePoint" />
            <mxPoint x="401" y="555" as="targetPoint" />
            <Array as="points">
              <mxPoint x="301" y="570" />
              <mxPoint x="401" y="570" />
            </Array>
          </mxGeometry>
        </mxCell>
        <mxCell id="tS3xyaebFN9T1gCZ_WtZ-296" value="" style="edgeStyle=orthogonalEdgeStyle;html=1;endArrow=block;elbow=vertical;startArrow=block;startFill=1;endFill=1;strokeColor=#545B64;rounded=0;" parent="1" edge="1">
          <mxGeometry width="100" relative="1" as="geometry">
            <mxPoint x="484.99999999999955" y="804.6599999999999" as="sourcePoint" />
            <mxPoint x="610" y="805" as="targetPoint" />
            <Array as="points">
              <mxPoint x="525" y="804.6600000000001" />
              <mxPoint x="525" y="804.6600000000001" />
            </Array>
          </mxGeometry>
        </mxCell>
        <mxCell id="tS3xyaebFN9T1gCZ_WtZ-297" value="" style="edgeStyle=orthogonalEdgeStyle;html=1;endArrow=block;elbow=vertical;startArrow=block;startFill=1;endFill=1;strokeColor=#545B64;rounded=0;" parent="1" edge="1">
          <mxGeometry width="100" relative="1" as="geometry">
            <mxPoint x="474.99999999999955" y="626.4199999999998" as="sourcePoint" />
            <mxPoint x="600" y="626.76" as="targetPoint" />
            <Array as="points">
              <mxPoint x="515" y="626.4200000000001" />
              <mxPoint x="515" y="626.4200000000001" />
            </Array>
          </mxGeometry>
        </mxCell>
        <mxCell id="tS3xyaebFN9T1gCZ_WtZ-298" value="" style="edgeStyle=orthogonalEdgeStyle;html=1;endArrow=block;elbow=vertical;startArrow=block;startFill=1;endFill=1;strokeColor=#545B64;rounded=0;" parent="1" edge="1">
          <mxGeometry width="100" relative="1" as="geometry">
            <mxPoint x="420" y="680" as="sourcePoint" />
            <mxPoint x="520" y="700.3500000000003" as="targetPoint" />
            <Array as="points">
              <mxPoint x="420" y="700" />
            </Array>
          </mxGeometry>
        </mxCell>
        <mxCell id="tS3xyaebFN9T1gCZ_WtZ-299" value="" style="edgeStyle=orthogonalEdgeStyle;html=1;endArrow=block;elbow=vertical;startArrow=block;startFill=1;endFill=1;strokeColor=#545B64;rounded=0;" parent="1" edge="1">
          <mxGeometry width="100" relative="1" as="geometry">
            <mxPoint x="420" y="760" as="sourcePoint" />
            <mxPoint x="520" y="732.1000000000004" as="targetPoint" />
            <Array as="points">
              <mxPoint x="420" y="731.75" />
            </Array>
          </mxGeometry>
        </mxCell>
        <mxCell id="tS3xyaebFN9T1gCZ_WtZ-300" value="" style="edgeStyle=orthogonalEdgeStyle;html=1;endArrow=block;elbow=vertical;startArrow=block;startFill=1;endFill=1;strokeColor=#545B64;rounded=0;" parent="1" edge="1">
          <mxGeometry width="100" relative="1" as="geometry">
            <mxPoint x="420" y="600" as="sourcePoint" />
            <mxPoint x="1010" y="200" as="targetPoint" />
            <Array as="points">
              <mxPoint x="420" y="580" />
              <mxPoint x="1010" y="580" />
            </Array>
          </mxGeometry>
        </mxCell>
        <mxCell id="tS3xyaebFN9T1gCZ_WtZ-301" value="" style="edgeStyle=orthogonalEdgeStyle;html=1;endArrow=block;elbow=vertical;startArrow=block;startFill=1;endFill=1;strokeColor=#545B64;rounded=0;" parent="1" edge="1">
          <mxGeometry width="100" relative="1" as="geometry">
            <mxPoint x="420" y="860" as="sourcePoint" />
            <mxPoint x="1030" y="200" as="targetPoint" />
            <Array as="points">
              <mxPoint x="460.03" y="900.0100000000001" />
              <mxPoint x="460.03" y="900.0100000000001" />
            </Array>
          </mxGeometry>
        </mxCell>
        <mxCell id="tS3xyaebFN9T1gCZ_WtZ-304" value="" style="edgeStyle=orthogonalEdgeStyle;html=1;endArrow=block;elbow=vertical;startArrow=block;startFill=1;endFill=1;strokeColor=#545B64;rounded=0;" parent="1" edge="1">
          <mxGeometry width="100" relative="1" as="geometry">
            <mxPoint x="1200" y="59.99999999999986" as="sourcePoint" />
            <mxPoint x="1330" y="60" as="targetPoint" />
          </mxGeometry>
        </mxCell>
        <mxCell id="tS3xyaebFN9T1gCZ_WtZ-305" value="" style="edgeStyle=orthogonalEdgeStyle;html=1;endArrow=block;elbow=vertical;startArrow=block;startFill=1;endFill=1;strokeColor=#545B64;rounded=0;" parent="1" edge="1">
          <mxGeometry width="100" relative="1" as="geometry">
            <mxPoint x="1440" y="61" as="sourcePoint" />
            <mxPoint x="1540" y="61.16" as="targetPoint" />
            <Array as="points">
              <mxPoint x="1520" y="61" />
              <mxPoint x="1520" y="61" />
            </Array>
          </mxGeometry>
        </mxCell>
        <mxCell id="tS3xyaebFN9T1gCZ_WtZ-306" value="" style="edgeStyle=orthogonalEdgeStyle;html=1;endArrow=block;elbow=vertical;startArrow=block;startFill=1;endFill=1;strokeColor=#545B64;rounded=0;" parent="1" edge="1">
          <mxGeometry width="100" relative="1" as="geometry">
            <mxPoint x="1640.25" y="61.41" as="sourcePoint" />
            <mxPoint x="1720.73" y="61.730000000000075" as="targetPoint" />
            <Array as="points">
              <mxPoint x="1700.73" y="61.56999999999999" />
              <mxPoint x="1700.73" y="61.56999999999999" />
            </Array>
          </mxGeometry>
        </mxCell>
        <mxCell id="tS3xyaebFN9T1gCZ_WtZ-307" value="" style="edgeStyle=orthogonalEdgeStyle;html=1;endArrow=block;elbow=vertical;startArrow=block;startFill=1;endFill=1;strokeColor=#545B64;rounded=0;" parent="1" edge="1">
          <mxGeometry width="100" relative="1" as="geometry">
            <mxPoint x="1389.41" y="-49.82" as="sourcePoint" />
            <mxPoint x="1389.8200000000002" y="-12.07" as="targetPoint" />
            <Array as="points">
              <mxPoint x="1389.8200000000002" y="-12.07" />
            </Array>
          </mxGeometry>
        </mxCell>
        <mxCell id="tS3xyaebFN9T1gCZ_WtZ-308" value="" style="edgeStyle=orthogonalEdgeStyle;html=1;endArrow=block;elbow=vertical;startArrow=block;startFill=1;endFill=1;strokeColor=#545B64;rounded=0;" parent="1" edge="1">
          <mxGeometry width="100" relative="1" as="geometry">
            <mxPoint x="1440" y="-122" as="sourcePoint" />
            <mxPoint x="1540" y="-121.83999999999992" as="targetPoint" />
            <Array as="points">
              <mxPoint x="1520" y="-122" />
              <mxPoint x="1520" y="-122" />
            </Array>
          </mxGeometry>
        </mxCell>
        <mxCell id="tS3xyaebFN9T1gCZ_WtZ-309" value="USER PROFILING JOB&lt;br&gt;&lt;br&gt;-------------------------------------&lt;br&gt;GRAPH WEIGHT JOB" style="points=[[0,0,0],[0.25,0,0],[0.5,0,0],[0.75,0,0],[1,0,0],[1,0.25,0],[1,0.5,0],[1,0.75,0],[1,1,0],[0.75,1,0],[0.5,1,0],[0.25,1,0],[0,1,0],[0,0.75,0],[0,0.5,0],[0,0.25,0]];rounded=1;absoluteArcSize=1;arcSize=2;html=1;strokeColor=none;gradientColor=none;shadow=0;dashed=0;fontSize=12;fontColor=#9E9E9E;align=left;verticalAlign=top;spacing=10;spacingTop=-4;fillColor=#F3E5F5;" parent="1" vertex="1">
          <mxGeometry x="1735.1" y="176.25" width="159" height="112" as="geometry" />
        </mxCell>
        <mxCell id="tS3xyaebFN9T1gCZ_WtZ-311" value="" style="edgeStyle=orthogonalEdgeStyle;html=1;endArrow=block;elbow=vertical;startArrow=block;startFill=1;endFill=1;strokeColor=#545B64;rounded=0;" parent="1" edge="1">
          <mxGeometry width="100" relative="1" as="geometry">
            <mxPoint x="1814.07" y="136.63000000000005" as="sourcePoint" />
            <mxPoint x="1814.4800000000002" y="174.38000000000005" as="targetPoint" />
            <Array as="points">
              <mxPoint x="1814.4800000000002" y="174.38" />
            </Array>
          </mxGeometry>
        </mxCell>
        <mxCell id="tS3xyaebFN9T1gCZ_WtZ-312" value="" style="edgeStyle=orthogonalEdgeStyle;html=1;endArrow=block;elbow=vertical;startArrow=block;startFill=1;endFill=1;strokeColor=#545B64;rounded=0;" parent="1" edge="1">
          <mxGeometry width="100" relative="1" as="geometry">
            <mxPoint x="1875.2" y="389.72" as="sourcePoint" />
            <mxPoint x="1943.2" y="389.65999999999997" as="targetPoint" />
            <Array as="points">
              <mxPoint x="1935.68" y="389.88" />
              <mxPoint x="1935.68" y="389.88" />
            </Array>
          </mxGeometry>
        </mxCell>
        <mxCell id="tS3xyaebFN9T1gCZ_WtZ-313" value="" style="edgeStyle=orthogonalEdgeStyle;html=1;endArrow=block;elbow=vertical;startArrow=block;startFill=1;endFill=1;strokeColor=#545B64;rounded=0;" parent="1" edge="1">
          <mxGeometry width="100" relative="1" as="geometry">
            <mxPoint x="1710.9699999999998" y="389.72" as="sourcePoint" />
            <mxPoint x="1778.9699999999998" y="389.65999999999985" as="targetPoint" />
            <Array as="points">
              <mxPoint x="1771.45" y="389.88" />
              <mxPoint x="1771.45" y="389.88" />
            </Array>
          </mxGeometry>
        </mxCell>
        <mxCell id="tS3xyaebFN9T1gCZ_WtZ-314" value="" style="edgeStyle=orthogonalEdgeStyle;html=1;endArrow=block;elbow=vertical;startArrow=block;startFill=1;endFill=1;strokeColor=#545B64;rounded=0;" parent="1" edge="1">
          <mxGeometry width="100" relative="1" as="geometry">
            <mxPoint x="1190" y="140" as="sourcePoint" />
            <mxPoint x="1720" y="190" as="targetPoint" />
            <Array as="points">
              <mxPoint x="1210" y="190" />
            </Array>
          </mxGeometry>
        </mxCell>
        <mxCell id="tS3xyaebFN9T1gCZ_WtZ-315" value="USER PROFILING BASED ON WEIGHTS" style="edgeLabel;html=1;align=center;verticalAlign=middle;resizable=0;points=[];" parent="tS3xyaebFN9T1gCZ_WtZ-314" vertex="1" connectable="0">
          <mxGeometry x="-0.0598" y="-2" relative="1" as="geometry">
            <mxPoint as="offset" />
          </mxGeometry>
        </mxCell>
        <mxCell id="tS3xyaebFN9T1gCZ_WtZ-316" value="" style="edgeStyle=orthogonalEdgeStyle;html=1;endArrow=block;elbow=vertical;startArrow=block;startFill=1;endFill=1;strokeColor=#545B64;rounded=0;" parent="1" edge="1">
          <mxGeometry width="100" relative="1" as="geometry">
            <mxPoint x="1469.9999999999993" y="389.72" as="sourcePoint" />
            <mxPoint x="1630" y="390" as="targetPoint" />
            <Array as="points">
              <mxPoint x="1530.48" y="389.88" />
              <mxPoint x="1530.48" y="389.88" />
            </Array>
          </mxGeometry>
        </mxCell>
        <mxCell id="tS3xyaebFN9T1gCZ_WtZ-317" value="" style="edgeStyle=orthogonalEdgeStyle;html=1;endArrow=block;elbow=vertical;startArrow=block;startFill=1;endFill=1;strokeColor=#545B64;rounded=0;" parent="1" edge="1">
          <mxGeometry width="100" relative="1" as="geometry">
            <mxPoint x="1140" y="200" as="sourcePoint" />
            <mxPoint x="1199.03" y="381.65999999999997" as="targetPoint" />
            <Array as="points">
              <mxPoint x="1169.03" y="381.65999999999997" />
              <mxPoint x="1169.03" y="381.65999999999997" />
            </Array>
          </mxGeometry>
        </mxCell>
        <mxCell id="tS3xyaebFN9T1gCZ_WtZ-318" value="" style="edgeStyle=orthogonalEdgeStyle;html=1;endArrow=block;elbow=vertical;startArrow=block;startFill=1;endFill=1;strokeColor=#545B64;rounded=0;" parent="1" edge="1">
          <mxGeometry width="100" relative="1" as="geometry">
            <mxPoint x="1281.9999999999993" y="381.72" as="sourcePoint" />
            <mxPoint x="1349.9999999999993" y="381.65999999999985" as="targetPoint" />
            <Array as="points">
              <mxPoint x="1342.48" y="381.88" />
              <mxPoint x="1342.48" y="381.88" />
            </Array>
          </mxGeometry>
        </mxCell>
        <mxCell id="tS3xyaebFN9T1gCZ_WtZ-319" value="" style="edgeStyle=orthogonalEdgeStyle;html=1;endArrow=block;elbow=vertical;startArrow=block;startFill=1;endFill=1;strokeColor=#545B64;rounded=0;" parent="1" edge="1">
          <mxGeometry width="100" relative="1" as="geometry">
            <mxPoint x="1679.9499999999998" y="455.74000000000007" as="sourcePoint" />
            <mxPoint x="1680.3600000000001" y="493.49000000000007" as="targetPoint" />
            <Array as="points">
              <mxPoint x="1680.3600000000001" y="493.49" />
            </Array>
          </mxGeometry>
        </mxCell>
        <mxCell id="tS3xyaebFN9T1gCZ_WtZ-320" value="" style="edgeStyle=orthogonalEdgeStyle;html=1;endArrow=block;elbow=vertical;startArrow=block;startFill=1;endFill=1;strokeColor=#545B64;rounded=0;" parent="1" edge="1">
          <mxGeometry width="100" relative="1" as="geometry">
            <mxPoint x="1319.999999999999" y="701.2" as="sourcePoint" />
            <mxPoint x="1420" y="701.52" as="targetPoint" />
            <Array as="points">
              <mxPoint x="1380.48" y="701.3599999999999" />
              <mxPoint x="1380.48" y="701.3599999999999" />
            </Array>
          </mxGeometry>
        </mxCell>
        <mxCell id="tS3xyaebFN9T1gCZ_WtZ-321" value="" style="edgeStyle=orthogonalEdgeStyle;html=1;endArrow=block;elbow=vertical;startArrow=block;startFill=1;endFill=1;strokeColor=#545B64;rounded=0;" parent="1" edge="1">
          <mxGeometry width="100" relative="1" as="geometry">
            <mxPoint x="1254.4099999999999" y="783" as="sourcePoint" />
            <mxPoint x="1254.8200000000006" y="820.7499999999998" as="targetPoint" />
            <Array as="points">
              <mxPoint x="1254.8200000000002" y="820.75" />
            </Array>
          </mxGeometry>
        </mxCell>
        <mxCell id="tS3xyaebFN9T1gCZ_WtZ-322" value="" style="edgeStyle=orthogonalEdgeStyle;html=1;endArrow=block;elbow=vertical;startArrow=block;startFill=1;endFill=1;strokeColor=#545B64;rounded=0;" parent="1" edge="1">
          <mxGeometry width="100" relative="1" as="geometry">
            <mxPoint x="1100" y="210" as="sourcePoint" />
            <mxPoint x="1200" y="710" as="targetPoint" />
            <Array as="points">
              <mxPoint x="1100" y="710" />
              <mxPoint x="1159" y="710" />
            </Array>
          </mxGeometry>
        </mxCell>
        <mxCell id="tS3xyaebFN9T1gCZ_WtZ-323" value="NOTIFICATION SERVICE" style="aspect=fixed;perimeter=ellipsePerimeter;html=1;align=center;shadow=0;dashed=0;fontColor=#4277BB;labelBackgroundColor=#ffffff;fontSize=12;spacingTop=3;image;image=img/lib/ibm/applications/microservice.svg;" parent="1" vertex="1">
          <mxGeometry x="2010" y="-61" width="60.97" height="44.5" as="geometry" />
        </mxCell>
        <mxCell id="tS3xyaebFN9T1gCZ_WtZ-324" value="" style="edgeStyle=orthogonalEdgeStyle;html=1;endArrow=block;elbow=vertical;startArrow=block;startFill=1;endFill=1;strokeColor=#545B64;rounded=0;" parent="1" edge="1">
          <mxGeometry width="100" relative="1" as="geometry">
            <mxPoint x="1590" y="10" as="sourcePoint" />
            <mxPoint x="1970" y="-40" as="targetPoint" />
            <Array as="points">
              <mxPoint x="1590" y="-40" />
            </Array>
          </mxGeometry>
        </mxCell>
        <mxCell id="tS3xyaebFN9T1gCZ_WtZ-325" value="WEEKLY CRON JOB" style="edgeLabel;html=1;align=center;verticalAlign=middle;resizable=0;points=[];" parent="tS3xyaebFN9T1gCZ_WtZ-324" vertex="1" connectable="0">
          <mxGeometry y="-2" relative="1" as="geometry">
            <mxPoint as="offset" />
          </mxGeometry>
        </mxCell>
        <mxCell id="tS3xyaebFN9T1gCZ_WtZ-326" value="" style="edgeStyle=orthogonalEdgeStyle;html=1;endArrow=block;elbow=vertical;startArrow=block;startFill=1;endFill=1;strokeColor=#545B64;rounded=0;" parent="1" edge="1">
          <mxGeometry width="100" relative="1" as="geometry">
            <mxPoint x="410" y="-210" as="sourcePoint" />
            <mxPoint x="2030" y="-80" as="targetPoint" />
            <Array as="points">
              <mxPoint x="410" y="-285" />
              <mxPoint x="2030" y="-285" />
              <mxPoint x="2030" y="-102" />
            </Array>
          </mxGeometry>
        </mxCell>
        <mxCell id="3fpI7uoz2IU3YHr6nfxB-1" value="LIVE USER SERVICE" style="aspect=fixed;perimeter=ellipsePerimeter;html=1;align=center;shadow=0;dashed=0;fontColor=#4277BB;labelBackgroundColor=#ffffff;fontSize=12;spacingTop=3;image;image=img/lib/ibm/applications/microservice.svg;" vertex="1" parent="1">
          <mxGeometry x="1239.03" y="237.25" width="60.97" height="44.5" as="geometry" />
        </mxCell>
        <mxCell id="3fpI7uoz2IU3YHr6nfxB-2" value="BROWSER WEB APP" style="shape=image;html=1;verticalAlign=top;verticalLabelPosition=bottom;labelBackgroundColor=#ffffff;imageAspect=0;aspect=fixed;image=https://cdn4.iconfinder.com/data/icons/web-essential-4/64/06-web_essential-128.png" vertex="1" parent="1">
          <mxGeometry x="1450" y="229" width="80" height="80" as="geometry" />
        </mxCell>
        <mxCell id="3fpI7uoz2IU3YHr6nfxB-3" value="" style="shape=image;html=1;verticalAlign=top;verticalLabelPosition=bottom;labelBackgroundColor=#ffffff;imageAspect=0;aspect=fixed;image=https://cdn1.iconfinder.com/data/icons/material-core/20/language-128.png" vertex="1" parent="1">
          <mxGeometry x="1475" y="244.5" width="30" height="30" as="geometry" />
        </mxCell>
        <mxCell id="3fpI7uoz2IU3YHr6nfxB-4" value="" style="edgeStyle=orthogonalEdgeStyle;html=1;endArrow=block;elbow=vertical;startArrow=block;startFill=1;endFill=1;strokeColor=#545B64;rounded=0;" edge="1" parent="1">
          <mxGeometry width="100" relative="1" as="geometry">
            <mxPoint x="1300" y="262" as="sourcePoint" />
            <mxPoint x="1450" y="261.75" as="targetPoint" />
            <Array as="points">
              <mxPoint x="1300" y="262" />
            </Array>
          </mxGeometry>
        </mxCell>
        <mxCell id="3fpI7uoz2IU3YHr6nfxB-5" value="WEB SOCKETS" style="edgeLabel;html=1;align=center;verticalAlign=middle;resizable=0;points=[];" vertex="1" connectable="0" parent="3fpI7uoz2IU3YHr6nfxB-4">
          <mxGeometry x="0.3846" y="-37" relative="1" as="geometry">
            <mxPoint x="-37" y="-35" as="offset" />
          </mxGeometry>
        </mxCell>
        <mxCell id="3fpI7uoz2IU3YHr6nfxB-6" value="" style="edgeStyle=orthogonalEdgeStyle;html=1;endArrow=block;elbow=vertical;startArrow=block;startFill=1;endFill=1;strokeColor=#545B64;rounded=0;" edge="1" parent="1">
          <mxGeometry width="100" relative="1" as="geometry">
            <mxPoint x="1160" y="200" as="sourcePoint" />
            <mxPoint x="1220" y="260" as="targetPoint" />
            <Array as="points">
              <mxPoint x="1160" y="260" />
              <mxPoint x="1200" y="260" />
            </Array>
          </mxGeometry>
        </mxCell>
      </root>
    </mxGraphModel>
  </diagram>
</mxfile>
